<?xml version="1.0" encoding="utf-8"?>
<!-- Generator: Adobe Illustrator 20.1.0, SVG Export Plug-In . SVG Version: 6.00 Build 0)  -->
<svg version="1.1" id="Capa_1" xmlns="http://www.w3.org/2000/svg" xmlns:xlink="http://www.w3.org/1999/xlink" x="0px" y="0px"
	 viewBox="0 0 333.1 128.6" style="enable-background:new 0 0 333.1 128.6;" xml:space="preserve">

<symbol  id="id_x5F_logotype" viewBox="-108.9 -61 217.7 122.1">
	<path class="st0" d="M-79.6-22.5c0-2.2,0.1-3.3-1.1-4.5c-1.9-1.6-8.1-1.7-9.9-0.1c-1.4,1.2-1.5,2.3-1.5,4.3v11c0,2,0.1,3.1,1.5,4.3
		c1.8,1.6,8.1,1.6,9.9,0c1.3-1.1,1.1-2.3,1.1-4.5v-1.3l-4.9-1.2v3.7v0.8c0,1.6-2.7,1.6-2.7,0v-0.8v-12.8v-0.8c0-1.6,2.7-1.6,2.7,0
		v0.7v5.3l4.9,1.4V-22.5z"/>
	<path class="st0" d="M-75.3-7.4c1.8,1.6,8.1,1.6,9.9,0c1.3-1.1,1.1-2.3,1.1-4.5v-10.5c0-2.2,0.1-3.4-1.1-4.5
		c-1.8-1.7-8.1-1.7-9.9-0.1c-1.4,1.2-1.5,2.3-1.5,4.2v11C-76.8-9.7-76.7-8.6-75.3-7.4 M-69.2-10c0,1.6-2.7,1.6-2.7,0v-0.8v-12.8
		v-0.8c0-1.6,2.7-1.6,2.7,0v0.7v12.9V-10z"/>
	<path class="st0" d="M-55.9-24.1c0-2-0.1-2.9,0.7-3.6h-7.1c1.6,1.1,1.4,1.6,1.4,3.5v13.6c0,2.3,0,2.8-2,4.1h7.3
		c1.5,0,4.8,0.2,6.3-1.3c1.3-1.3,1.2-3.3,1.2-4.7v-12.4c0-6.2-0.2-6.9,2.5-8.8c-2.5-0.1-4.1,1.1-5.1,2.1c-0.6,0.7-1.6,2.8-3.6,3.8
		c1,0.6,1.2,1.3,1.2,3.2V-12v1.8c0,1-0.6,1.4-1.5,1.4H-56L-55.9-24.1z"/>
	<path class="st0" d="M-68-55c0-2.2,0.2-3.3-1.1-4.5c-1.9-1.7-8-1.7-9.9,0c-1.3,1.2-1.5,2.3-1.5,4.3v11c0,2,0.2,3.1,1.5,4.3
		c1.9,1.6,8.1,1.6,9.9,0c1.2-1.1,1.1-2.3,1.1-4.5v-3.2c-1.9-0.1-5.1-0.7-7.5-2v-6.5v-0.8c0-1.6,2.7-1.6,2.7,0v0.7v5.3
		c1.2,0.7,3.2,1.2,4.9,1.2L-68-55z M-72.9-43.3v0.7c0,1.6-2.7,1.6-2.7,0v-0.8v-3.2l2.7,0.7V-43.3z"/>
	<path class="st0" d="M-67-34.1c0.9,0,1.8-0.2,2.3-0.4l2.4-0.8c1.9-0.6,2.3-0.9,3.9-1c-1-0.5-1.1-1.1-1.1-2.4c0-0.1,0-0.4,0-0.4
		v-17.6c0-2-0.1-2.5,1.5-3.6h-7.8c1.5,1.1,1.4,1.6,1.4,3.5l-0.1,18.5C-64.5-36.4-64.9-35.3-67-34.1"/>
	<path class="st0" d="M-90.1,49.4c0,2.9,0,5.7-3.7,5.7c-3.9,0-3.7-2.9-3.7-5.7l0.1-34c0-2.7-0.2-5.7,3.7-5.7c3.6,0,3.6,2.8,3.6,5.7
		V26l11.1,2.9V16.3c0-3.5,0.5-7.8-3.7-10.1c-5.7-3.2-16-3.2-22-0.1c-4.4,2.3-4,5.8-4,10.3l-0.1,31.9c0,4.5-0.5,7.9,3.9,10.2
		c5.9,3.1,16.1,2.8,22-0.1c4.2-2.1,3.7-6.4,3.7-10v-7.7c-3.7-0.1-8.3-1.3-11.1-2.4L-90.1,49.4z"/>
	<path class="st0" d="M-54.4,41.3c0,5,0.4,6.4-2.7,8.8h13.3l0.1-38.7V10c0-2.9,0.1-3.8,2.1-5.4h-16.5c-3.8,0-9-0.2-12.1,2.9
		c-1.7,1.8-1.7,7.3-1.7,8.9L-72,41.3c0,5,0,5.9-4.2,8.8h14.8l0.1-35.8c0-2.8,1.5-4.1,3.3-4h3.6v1.8L-54.4,41.3z"/>
	<path class="st0" d="M-35.4,41.3c0,5,0,5.9-4.2,8.8h14.8l0.1-37.8c0-4.4-0.4-5.3,3.1-7.7h-16.7c3.3,2.3,3,3.3,3,7.5L-35.4,41.3z
		 M-26.9,59.4c0.8-0.8,1.4-1.9,1.2-3.1c-0.1-1-1-2-2.5-2.7c-1.8-0.8-5.3-1.1-7.3,0c-1.1,0.7-2,1.9-2.1,3.2c0,2,1.9,3.5,4,3.9
		C-32.1,61-29,61.2-26.9,59.4"/>
	<path class="st0" d="M2.3,58.1c5.8-2.5,4.6-1.7,10.4-2.8c-4-2.4-4.2-4.9-4.2-8.2V11.9c0-4.5,0-5,3.4-7H-2.2
		c-13.2,0-15.1,0.7-15.1,12.9L-17.4,40c0,9.3,1.1,10.3,14,10.3h1.8c0.2,4.6-0.8,7.1-5,10.6c2.3-0.1,2.9-0.3,4.6-1L2.3,58.1z
		 M-1.7,10.8l-0.1,33.6c-4.8,0-4.9-0.3-4.9-4.6l0.1-24.5C-6.6,11.1-6.5,10.8-1.7,10.8"/>
	<path class="st0" d="M25.7,42.6c0,0,0-4,0-5.5v-1.4c-3.6-0.9-7-2.4-10.2-4.8v7.2c0,5.3-0.3,8.4,3.5,10.7c4.6,2.8,14.2,2.9,19.2,0
		c4-2.3,3.5-5,3.5-10.1l0.1-27.5c0-4.3,0.2-4.5,2.8-6.4h-2L29.3,4.9c-14.5,0-13.5,0-13.6,12.6c0,9.7-0.9,9.4,8.6,13.6l1.2,0.5
		c2.9,1.2,5.6,2,5.9,5.6c0,0.6,0,3,0,3v2.5C31.4,46.1,25.6,46.1,25.7,42.6 M25.7,13.9c0-3.2,0.4-3.2,5.8-3.2v16.1
		c-3.8-1.7-5.8-2.5-5.8-4.1c0,0,0-4.6,0-5C25.7,17.1,25.7,13.9,25.7,13.9"/>
	<path class="st0" d="M68.4,58.2c5.8-2.5,4.6-1.7,10.3-2.8c-4-2.4-4.2-5-4.2-8.1L74.6,12c0-4.5,0-5,3.5-7H64
		C50.8,5,48.9,5.8,48.9,17.9l-0.1,22.2c0,9.3,1.1,10.3,14,10.3h1.8c0.2,4.6-0.8,7.1-5,10.6c2.3-0.1,2.9-0.3,4.6-1L68.4,58.2z
		 M64.3,11v33.6c-4.8,0-4.9-0.3-4.9-4.6l0.1-24.5C59.5,11.3,59.5,10.9,64.3,11"/>
	<path class="st0" d="M85.2,48.6c4,3.5,17.3,3.5,21.2,0c2.7-2.4,2.4-4.9,2.4-9.6l0.1-22.5c0-4.7,0.3-7.2-2.4-9.6
		c-4-3.5-17.2-3.6-21.2-0.1c-2.9,2.5-3.3,4.9-3.3,9.1l-0.1,23.5C81.9,43.7,82.2,46.1,85.2,48.6 M98.4,43.2c0,3.4-5.8,3.4-5.8,0v-1.7
		L92.7,14v-1.7c0-3.4,5.8-3.4,5.8,0v1.6l-0.1,27.7V43.2z"/>
	<path class="st0" d="M-10.6-7.5c2.4-2.5,2.2-6.6,2.2-9.5v-11.1c0-6.7-0.8-7.5-3.4-9.2c-3.2-2-10.2-1.8-14.4-1.8v-14.5
		c0-3.9,0.1-4.8,3.5-6.8h-18.1c3.4,2,3.5,3,3.5,6.8l-0.1,41.7c0,3.8-0.1,4.8-3.5,6.8h18.6C-20.2-5-13.4-4.7-10.6-7.5 M-22.8-32.7
		c2.4,0,3.3,1,3.3,2.8V-19c0,1.6,0,5.3,0,5.3c0,1.3-0.9,2.5-3.3,2.5h-3.3l0.1-21.6L-22.8-32.7z"/>
	<path class="st0" d="M22.7-48.8c0-4.7,0.4-7.2-2.3-9.6c-4-3.5-17.2-3.6-21.3-0.1c-2.9,2.5-3.2,4.9-3.2,9.1l-0.1,23.5
		c0,4.3,0.3,6.6,3.1,9.1c4.1,3.5,17.3,3.5,21.3,0c2.7-2.4,2.3-4.9,2.4-9.6v-6.9c-4.1-0.2-10.9-1.6-16.1-4.2v-13.9v-1.7
		c0-3.4,5.7-3.4,5.8,0v1.6v11.4c2.5,1.6,6.9,2.5,10.4,2.6V-48.8z M12.2-23.8v1.5c0,3.4-5.7,3.4-5.7,0V-24v-6.8l5.7,1.4V-23.8z"/>
	<path class="st0" d="M43.8-60.3H27c3.3,2.3,3,3.3,3,7.6l-0.1,31.8c0,3-0.2,4.1-2.7,6.1h10.2l1.8-1.6c3.1,2.4,6.6,2.7,8.5,2.2v-7.6
		c-2.2,1.6-4.1,2.3-5.7,1.3c-1.4-0.8-1.5-2.3-1.5-3.2c0,0,0-3.5,0-3.6l0.1-25.2C40.7-57,40.3-57.9,43.8-60.3"/>
	<path class="st0" d="M66.7-60.2H50c3.3,2.3,3,3.3,3,7.6l-0.1,31.7c0,3-0.2,4.1-2.7,6.1h10.2l1.8-1.6c3.1,2.4,6.6,2.7,8.5,2.3v-7.6
		c-2.2,1.6-4.1,2.3-5.7,1.3c-1.4-0.8-1.4-2.3-1.4-3.2c0,0,0-3.5,0-3.6l0.1-25.2C63.6-56.9,63.2-57.9,66.7-60.2"/>
	<path class="st0" d="M76.2-16.6c4,3.5,17.3,3.5,21.2,0c2.7-2.4,2.4-4.9,2.4-9.6l0.1-22.5c0-4.7,0.3-7.2-2.4-9.6
		c-4-3.5-17.3-3.6-21.2-0.1c-2.9,2.6-3.3,4.9-3.3,9.1v23.5C73-21.5,73.3-19.1,76.2-16.6 M89.4-22c0,3.4-5.8,3.4-5.8,0v-1.7l0.1-27.4
		v-1.7c0-3.4,5.8-3.4,5.8,0v1.6l-0.1,27.7V-22z"/>
</symbol>
<symbol  id="id_x5F_symbol" viewBox="-51 -64.2 102 128.3">
	<path class="st0" d="M47.7,34.5l2.2,0.9c4.3,6-5,14.7-5,14.7l0.6,1c1.2,12.9-9.4,13.1-9.4,13.1l-2.2-1.6l-15.4,0.7l-2.4,0.8
		l-4.4,0.1l-3.8-2c-7-3.2,3-7.5,3-7.5s2.2,1.6,0-1c-2.3-2.7,0.2-4.4,0.2-4.4l0.2-2.4c-3.9-5.3-4.2-15.8-4.2-15.8l-1.4-4
		c-0.9,0-7.4-8.3-7.4-8.3c-10.2-1.4-15.7-5.1-18.6-8.3c-7.2,4.5-3.4-1-2-2.8c-0.8-1.4-1-2.4-1-2.4c-6.4-5.6-9.8-14-9.8-14
		c-5.1-6-7.9-17.5-7.9-17.5c-1.2,0.7-5.4-3.9-5.4-3.9l-1.5-9.4c-3.5-2-3.1-13.2-3.1-13.2l6.9,0.2c2.2-0.1,1.2,10.5,1.2,10.5
		c1.6,0.3,2.3,4.7,2.3,4.7c1.7,6.7,23,18.8,23,18.8c7.5-2.9,10.1-0.2,10.1-0.2c-1.7-4.8,1.6-23.2,1.6-23.2l-0.6-12.2
		c-3.2-2.6-0.1-6.8-0.1-6.8l5.9-0.8c5,0.2,2.7,9.1,2.7,9.1l3.4-1.1c4.7,0.6-1.4,8.8-1.4,8.8l0.2,9.5c7.2-1.2,9.3,9.6,9.3,9.6
		c7.8-3.5,20,8.3,20,8.3l1.5-1.7v-4.7c-2.9-4.6,3.4-28.9,3.4-28.9l-1-2c-2-3,1.1-4.1,1.1-4.1c-0.1-5.7,4.6-5.2,4.6-5.2
		C54.4-64,44-51.6,44-51.6l1.1,20.3c2.8,0.3,0,14.6,0,14.6c5.9,11-1.8,27.5-1.8,27.5c0.1,6.1-4.7,12-4.7,12l0.1,3.7
		C41.6,27.5,47.7,34.5,47.7,34.5"/>
</symbol>
<g>
	
		<use xlink:href="#id_x5F_logotype"  width="217.7" height="122.1" x="-108.9" y="-61" transform="matrix(0.999 0 0 -0.999 224.3418 60.9823)" style="overflow:visible;"/>
	
		<use xlink:href="#id_x5F_symbol"  width="102" height="128.3" x="-51" y="-64.2" transform="matrix(0.9995 0 0 -0.9995 51.0109 64.4709)" style="overflow:visible;"/>
</g>
</svg>
