<?xml version="1.0" encoding="UTF-8" standalone="no"?>
<!-- Generator: Adobe Illustrator 20.1.0, SVG Export Plug-In . SVG Version: 6.00 Build 0)  -->

<svg
   xmlns:dc="http://purl.org/dc/elements/1.1/"
   xmlns:cc="http://creativecommons.org/ns#"
   xmlns:rdf="http://www.w3.org/1999/02/22-rdf-syntax-ns#"
   xmlns:svg="http://www.w3.org/2000/svg"
   xmlns="http://www.w3.org/2000/svg"
   xmlns:xlink="http://www.w3.org/1999/xlink"
   xmlns:sodipodi="http://sodipodi.sourceforge.net/DTD/sodipodi-0.dtd"
   xmlns:inkscape="http://www.inkscape.org/namespaces/inkscape"
   version="1.1"
   id="Capa_1"
   x="0px"
   y="0px"
   viewBox="0 0 101.998 128.24699"
   xml:space="preserve"
   sodipodi:docname="logo-ccep-small.svg"
   width="101.998"
   height="128.24699"
   inkscape:version="0.92.3 (2405546, 2018-03-11)"><metadata
   id="metadata51"><rdf:RDF><cc:Work
       rdf:about=""><dc:format>image/svg+xml</dc:format><dc:type
         rdf:resource="http://purl.org/dc/dcmitype/StillImage" /><dc:title></dc:title></cc:Work></rdf:RDF></metadata><defs
   id="defs49" /><sodipodi:namedview
   pagecolor="#ffffff"
   bordercolor="#666666"
   borderopacity="1"
   objecttolerance="10"
   gridtolerance="10"
   guidetolerance="10"
   inkscape:pageopacity="0"
   inkscape:pageshadow="2"
   inkscape:window-width="1366"
   inkscape:window-height="705"
   id="namedview47"
   showgrid="false"
   inkscape:zoom="1.0537376"
   inkscape:cx="166.55"
   inkscape:cy="64.300003"
   inkscape:window-x="0"
   inkscape:window-y="30"
   inkscape:window-maximized="1"
   inkscape:current-layer="g44" />

<symbol
   id="id_x5F_logotype"
   viewBox="-108.9 -61 217.7 122.1"
   transform="translate(0,-0.35300221)">
	<path
   class="st0"
   d="m -79.6,-22.5 c 0,-2.2 0.1,-3.3 -1.1,-4.5 -1.9,-1.6 -8.1,-1.7 -9.9,-0.1 -1.4,1.2 -1.5,2.3 -1.5,4.3 v 11 c 0,2 0.1,3.1 1.5,4.3 1.8,1.6 8.1,1.6 9.9,0 1.3,-1.1 1.1,-2.3 1.1,-4.5 v -1.3 l -4.9,-1.2 v 3.7 0.8 c 0,1.6 -2.7,1.6 -2.7,0 v -0.8 -12.8 -0.8 c 0,-1.6 2.7,-1.6 2.7,0 v 0.7 5.3 l 4.9,1.4 z"
   id="path2"
   inkscape:connector-curvature="0" />
	<path
   class="st0"
   d="m -75.3,-7.4 c 1.8,1.6 8.1,1.6 9.9,0 1.3,-1.1 1.1,-2.3 1.1,-4.5 v -10.5 c 0,-2.2 0.1,-3.4 -1.1,-4.5 -1.8,-1.7 -8.1,-1.7 -9.9,-0.1 -1.4,1.2 -1.5,2.3 -1.5,4.2 v 11 c 0,2.1 0.1,3.2 1.5,4.4 m 6.1,-2.6 c 0,1.6 -2.7,1.6 -2.7,0 v -0.8 -12.8 -0.8 c 0,-1.6 2.7,-1.6 2.7,0 v 0.7 12.9 z"
   id="path4"
   inkscape:connector-curvature="0" />
	<path
   class="st0"
   d="m -55.9,-24.1 c 0,-2 -0.1,-2.9 0.7,-3.6 h -7.1 c 1.6,1.1 1.4,1.6 1.4,3.5 v 13.6 c 0,2.3 0,2.8 -2,4.1 h 7.3 c 1.5,0 4.8,0.2 6.3,-1.3 1.3,-1.3 1.2,-3.3 1.2,-4.7 v -12.4 c 0,-6.2 -0.2,-6.9 2.5,-8.8 -2.5,-0.1 -4.1,1.1 -5.1,2.1 -0.6,0.7 -1.6,2.8 -3.6,3.8 1,0.6 1.2,1.3 1.2,3.2 v 12.6 1.8 c 0,1 -0.6,1.4 -1.5,1.4 H -56 Z"
   id="path6"
   inkscape:connector-curvature="0" />
	<path
   class="st0"
   d="m -68,-55 c 0,-2.2 0.2,-3.3 -1.1,-4.5 -1.9,-1.7 -8,-1.7 -9.9,0 -1.3,1.2 -1.5,2.3 -1.5,4.3 v 11 c 0,2 0.2,3.1 1.5,4.3 1.9,1.6 8.1,1.6 9.9,0 1.2,-1.1 1.1,-2.3 1.1,-4.5 v -3.2 c -1.9,-0.1 -5.1,-0.7 -7.5,-2 v -6.5 -0.8 c 0,-1.6 2.7,-1.6 2.7,0 v 0.7 5.3 c 1.2,0.7 3.2,1.2 4.9,1.2 z m -4.9,11.7 v 0.7 c 0,1.6 -2.7,1.6 -2.7,0 v -0.8 -3.2 l 2.7,0.7 z"
   id="path8"
   inkscape:connector-curvature="0" />
	<path
   class="st0"
   d="m -67,-34.1 c 0.9,0 1.8,-0.2 2.3,-0.4 l 2.4,-0.8 c 1.9,-0.6 2.3,-0.9 3.9,-1 -1,-0.5 -1.1,-1.1 -1.1,-2.4 0,-0.1 0,-0.4 0,-0.4 v -17.6 c 0,-2 -0.1,-2.5 1.5,-3.6 h -7.8 c 1.5,1.1 1.4,1.6 1.4,3.5 l -0.1,18.5 c 0,1.9 -0.4,3 -2.5,4.2"
   id="path10"
   inkscape:connector-curvature="0" />
	<path
   class="st0"
   d="m -90.1,49.4 c 0,2.9 0,5.7 -3.7,5.7 -3.9,0 -3.7,-2.9 -3.7,-5.7 l 0.1,-34 c 0,-2.7 -0.2,-5.7 3.7,-5.7 3.6,0 3.6,2.8 3.6,5.7 V 26 L -79,28.9 V 16.3 c 0,-3.5 0.5,-7.8 -3.7,-10.1 -5.7,-3.2 -16,-3.2 -22,-0.1 -4.4,2.3 -4,5.8 -4,10.3 l -0.1,31.9 c 0,4.5 -0.5,7.9 3.9,10.2 5.9,3.1 16.1,2.8 22,-0.1 4.2,-2.1 3.7,-6.4 3.7,-10 v -7.7 c -3.7,-0.1 -8.3,-1.3 -11.1,-2.4 z"
   id="path12"
   inkscape:connector-curvature="0" />
	<path
   class="st0"
   d="m -54.4,41.3 c 0,5 0.4,6.4 -2.7,8.8 h 13.3 l 0.1,-38.7 V 10 c 0,-2.9 0.1,-3.8 2.1,-5.4 h -16.5 c -3.8,0 -9,-0.2 -12.1,2.9 -1.7,1.8 -1.7,7.3 -1.7,8.9 L -72,41.3 c 0,5 0,5.9 -4.2,8.8 h 14.8 l 0.1,-35.8 c 0,-2.8 1.5,-4.1 3.3,-4 h 3.6 v 1.8 z"
   id="path14"
   inkscape:connector-curvature="0" />
	<path
   class="st0"
   d="m -35.4,41.3 c 0,5 0,5.9 -4.2,8.8 h 14.8 l 0.1,-37.8 c 0,-4.4 -0.4,-5.3 3.1,-7.7 h -16.7 c 3.3,2.3 3,3.3 3,7.5 z m 8.5,18.1 c 0.8,-0.8 1.4,-1.9 1.2,-3.1 -0.1,-1 -1,-2 -2.5,-2.7 -1.8,-0.8 -5.3,-1.1 -7.3,0 -1.1,0.7 -2,1.9 -2.1,3.2 0,2 1.9,3.5 4,3.9 1.5,0.3 4.6,0.5 6.7,-1.3"
   id="path16"
   inkscape:connector-curvature="0" />
	<path
   class="st0"
   d="M 2.3,58.1 C 8.1,55.6 6.9,56.4 12.7,55.3 8.7,52.9 8.5,50.4 8.5,47.1 V 11.9 c 0,-4.5 0,-5 3.4,-7 H -2.2 c -13.2,0 -15.1,0.7 -15.1,12.9 L -17.4,40 c 0,9.3 1.1,10.3 14,10.3 h 1.8 c 0.2,4.6 -0.8,7.1 -5,10.6 2.3,-0.1 2.9,-0.3 4.6,-1 z m -4,-47.3 -0.1,33.6 c -4.8,0 -4.9,-0.3 -4.9,-4.6 l 0.1,-24.5 c 0,-4.2 0.1,-4.5 4.9,-4.5"
   id="path18"
   inkscape:connector-curvature="0" />
	<path
   class="st0"
   d="m 25.7,42.6 c 0,0 0,-4 0,-5.5 v -1.4 c -3.6,-0.9 -7,-2.4 -10.2,-4.8 v 7.2 c 0,5.3 -0.3,8.4 3.5,10.7 4.6,2.8 14.2,2.9 19.2,0 4,-2.3 3.5,-5 3.5,-10.1 l 0.1,-27.5 c 0,-4.3 0.2,-4.5 2.8,-6.4 h -2 L 29.3,4.9 c -14.5,0 -13.5,0 -13.6,12.6 0,9.7 -0.9,9.4 8.6,13.6 l 1.2,0.5 c 2.9,1.2 5.6,2 5.9,5.6 0,0.6 0,3 0,3 v 2.5 c 0,3.4 -5.8,3.4 -5.7,-0.1 m 0,-28.7 c 0,-3.2 0.4,-3.2 5.8,-3.2 v 16.1 c -3.8,-1.7 -5.8,-2.5 -5.8,-4.1 0,0 0,-4.6 0,-5 0,-0.6 0,-3.8 0,-3.8"
   id="path20"
   inkscape:connector-curvature="0" />
	<path
   class="st0"
   d="m 68.4,58.2 c 5.8,-2.5 4.6,-1.7 10.3,-2.8 -4,-2.4 -4.2,-5 -4.2,-8.1 L 74.6,12 c 0,-4.5 0,-5 3.5,-7 H 64 C 50.8,5 48.9,5.8 48.9,17.9 l -0.1,22.2 c 0,9.3 1.1,10.3 14,10.3 h 1.8 c 0.2,4.6 -0.8,7.1 -5,10.6 2.3,-0.1 2.9,-0.3 4.6,-1 z M 64.3,11 v 33.6 c -4.8,0 -4.9,-0.3 -4.9,-4.6 l 0.1,-24.5 c 0,-4.2 0,-4.6 4.8,-4.5"
   id="path22"
   inkscape:connector-curvature="0" />
	<path
   class="st0"
   d="m 85.2,48.6 c 4,3.5 17.3,3.5 21.2,0 2.7,-2.4 2.4,-4.9 2.4,-9.6 l 0.1,-22.5 c 0,-4.7 0.3,-7.2 -2.4,-9.6 C 102.5,3.4 89.3,3.3 85.3,6.8 82.4,9.3 82,11.7 82,15.9 l -0.1,23.5 c 0,4.3 0.3,6.7 3.3,9.2 m 13.2,-5.4 c 0,3.4 -5.8,3.4 -5.8,0 V 41.5 L 92.7,14 v -1.7 c 0,-3.4 5.8,-3.4 5.8,0 v 1.6 l -0.1,27.7 z"
   id="path24"
   inkscape:connector-curvature="0" />
	<path
   class="st0"
   d="m -10.6,-7.5 c 2.4,-2.5 2.2,-6.6 2.2,-9.5 v -11.1 c 0,-6.7 -0.8,-7.5 -3.4,-9.2 -3.2,-2 -10.2,-1.8 -14.4,-1.8 v -14.5 c 0,-3.9 0.1,-4.8 3.5,-6.8 h -18.1 c 3.4,2 3.5,3 3.5,6.8 l -0.1,41.7 c 0,3.8 -0.1,4.8 -3.5,6.8 h 18.6 c 2.1,0.1 8.9,0.4 11.7,-2.4 m -12.2,-25.2 c 2.4,0 3.3,1 3.3,2.8 V -19 c 0,1.6 0,5.3 0,5.3 0,1.3 -0.9,2.5 -3.3,2.5 h -3.3 l 0.1,-21.6 z"
   id="path26"
   inkscape:connector-curvature="0" />
	<path
   class="st0"
   d="m 22.7,-48.8 c 0,-4.7 0.4,-7.2 -2.3,-9.6 -4,-3.5 -17.2,-3.6 -21.3,-0.1 -2.9,2.5 -3.2,4.9 -3.2,9.1 l -0.1,23.5 c 0,4.3 0.3,6.6 3.1,9.1 4.1,3.5 17.3,3.5 21.3,0 2.7,-2.4 2.3,-4.9 2.4,-9.6 v -6.9 c -4.1,-0.2 -10.9,-1.6 -16.1,-4.2 v -13.9 -1.7 c 0,-3.4 5.7,-3.4 5.8,0 v 1.6 11.4 c 2.5,1.6 6.9,2.5 10.4,2.6 z m -10.5,25 v 1.5 c 0,3.4 -5.7,3.4 -5.7,0 v -1.7 -6.8 l 5.7,1.4 z"
   id="path28"
   inkscape:connector-curvature="0" />
	<path
   class="st0"
   d="M 43.8,-60.3 H 27 c 3.3,2.3 3,3.3 3,7.6 l -0.1,31.8 c 0,3 -0.2,4.1 -2.7,6.1 h 10.2 l 1.8,-1.6 c 3.1,2.4 6.6,2.7 8.5,2.2 v -7.6 c -2.2,1.6 -4.1,2.3 -5.7,1.3 -1.4,-0.8 -1.5,-2.3 -1.5,-3.2 0,0 0,-3.5 0,-3.6 l 0.1,-25.2 c 0.1,-4.5 -0.3,-5.4 3.2,-7.8"
   id="path30"
   inkscape:connector-curvature="0" />
	<path
   class="st0"
   d="M 66.7,-60.2 H 50 c 3.3,2.3 3,3.3 3,7.6 l -0.1,31.7 c 0,3 -0.2,4.1 -2.7,6.1 h 10.2 l 1.8,-1.6 c 3.1,2.4 6.6,2.7 8.5,2.3 v -7.6 c -2.2,1.6 -4.1,2.3 -5.7,1.3 -1.4,-0.8 -1.4,-2.3 -1.4,-3.2 0,0 0,-3.5 0,-3.6 l 0.1,-25.2 c -0.1,-4.5 -0.5,-5.5 3,-7.8"
   id="path32"
   inkscape:connector-curvature="0" />
	<path
   class="st0"
   d="m 76.2,-16.6 c 4,3.5 17.3,3.5 21.2,0 2.7,-2.4 2.4,-4.9 2.4,-9.6 l 0.1,-22.5 c 0,-4.7 0.3,-7.2 -2.4,-9.6 -4,-3.5 -17.3,-3.6 -21.2,-0.1 -2.9,2.6 -3.3,4.9 -3.3,9.1 v 23.5 c 0,4.3 0.3,6.7 3.2,9.2 M 89.4,-22 c 0,3.4 -5.8,3.4 -5.8,0 v -1.7 l 0.1,-27.4 v -1.7 c 0,-3.4 5.8,-3.4 5.8,0 v 1.6 l -0.1,27.7 z"
   id="path34"
   inkscape:connector-curvature="0" />
</symbol>
<symbol
   id="id_x5F_symbol"
   viewBox="-51 -64.2 102 128.3"
   transform="translate(0,-0.35300221)">
	<path
   class="st0"
   d="m 47.7,34.5 2.2,0.9 c 4.3,6 -5,14.7 -5,14.7 l 0.6,1 C 46.7,64 36.1,64.2 36.1,64.2 l -2.2,-1.6 -15.4,0.7 -2.4,0.8 -4.4,0.1 -3.8,-2 c -7,-3.2 3,-7.5 3,-7.5 0,0 2.2,1.6 0,-1 -2.3,-2.7 0.2,-4.4 0.2,-4.4 l 0.2,-2.4 C 7.4,41.6 7.1,31.1 7.1,31.1 l -1.4,-4 c -0.9,0 -7.4,-8.3 -7.4,-8.3 -10.2,-1.4 -15.7,-5.1 -18.6,-8.3 -7.2,4.5 -3.4,-1 -2,-2.8 -0.8,-1.4 -1,-2.4 -1,-2.4 -6.4,-5.6 -9.8,-14 -9.8,-14 -5.1,-6 -7.9,-17.5 -7.9,-17.5 -1.2,0.7 -5.4,-3.9 -5.4,-3.9 l -1.5,-9.4 c -3.5,-2 -3.1,-13.2 -3.1,-13.2 l 6.9,0.2 c 2.2,-0.1 1.2,10.5 1.2,10.5 1.6,0.3 2.3,4.7 2.3,4.7 1.7,6.7 23,18.8 23,18.8 7.5,-2.9 10.1,-0.2 10.1,-0.2 -1.7,-4.8 1.6,-23.2 1.6,-23.2 l -0.6,-12.2 c -3.2,-2.6 -0.1,-6.8 -0.1,-6.8 l 5.9,-0.8 c 5,0.2 2.7,9.1 2.7,9.1 l 3.4,-1.1 c 4.7,0.6 -1.4,8.8 -1.4,8.8 l 0.2,9.5 c 7.2,-1.2 9.3,9.6 9.3,9.6 7.8,-3.5 20,8.3 20,8.3 l 1.5,-1.7 v -4.7 c -2.9,-4.6 3.4,-28.9 3.4,-28.9 l -1,-2 c -2,-3 1.1,-4.1 1.1,-4.1 -0.1,-5.7 4.6,-5.2 4.6,-5.2 11.3,0.1 0.9,12.5 0.9,12.5 l 1.1,20.3 c 2.8,0.3 0,14.6 0,14.6 5.9,11 -1.8,27.5 -1.8,27.5 0.1,6.1 -4.7,12 -4.7,12 l 0.1,3.7 c 2.9,1 9,8 9,8"
   id="path37"
   inkscape:connector-curvature="0" />
</symbol>
<g
   id="g44"
   transform="translate(0,-0.35300221)">
	
		
	
		<use
   xlink:href="#id_x5F_symbol"
   width="102"
   height="128.3"
   x="-51"
   y="-64.199997"
   transform="matrix(0.9995,0,0,-0.9995,51.0109,64.118074)"
   style="overflow:visible"
   id="use42" />
</g>
</svg>